<?xml version="1.0" encoding="utf-8"?>
<!-- Generator: Adobe Illustrator 16.0.0, SVG Export Plug-In . SVG Version: 6.00 Build 0)  -->
<!DOCTYPE svg PUBLIC "-//W3C//DTD SVG 1.1//EN" "http://www.w3.org/Graphics/SVG/1.1/DTD/svg11.dtd">
<svg version="1.1" id="图层_1" xmlns="http://www.w3.org/2000/svg" xmlns:xlink="http://www.w3.org/1999/xlink" x="0px" y="0px"
	 width="44.125px" height="11.25px" viewBox="0 0 44.125 11.25" enable-background="new 0 0 44.125 11.25" xml:space="preserve">
<path id="MEN" fill="#CBB993" d="M14.819,10.949c-1.113,0.091-1.624-0.27-1.53-1.059V1.2c-0.047-0.66,0.463-0.96,1.53-0.87V0.01
	h-3.338l-4.1,9.381l-4.1-9.381H0.013v0.32C1.125,0.29,1.635,0.58,1.542,1.2v8.691c0.093,0.789-0.417,1.149-1.529,1.059v0.311h3.755
	v-0.311C2.516,11.04,1.96,10.68,2.099,9.891V0.45l4.8,10.81h0.278l4.728-10.81h0.139v9.441c0.092,0.75-0.487,1.1-1.738,1.059v0.311
	h4.52v-0.311H14.819z M28.182,8.76c-0.648,1.59-1.414,2.301-2.293,2.131h-3.548c-0.834,0.039-1.228-0.271-1.182-0.941V5.58h2.851
	c0.881-0.17,1.438,0.46,1.67,1.869h0.352v-4h-0.348c-0.094,1.25-0.65,1.81-1.67,1.69h-2.851V1.39c-0.046-0.71,0.348-1.04,1.182-1
	h2.99c0.927-0.21,1.715,0.54,2.365,2.25l0.347-0.13L27.7,0.01h-9.318v0.32c1.113-0.04,1.622,0.31,1.53,1.06v8.559
	c0.092,0.711-0.417,1.041-1.53,1v0.311h9.735l0.417-2.369L28.182,8.76z M44.119,0.33V0.01h-3.546v0.32
	c1.204-0.09,1.737,0.27,1.6,1.06v7.94l-7.51-9.32h-2.5v0.32c1.066-0.04,1.554,0.25,1.46,0.87v8.691
	c0.093,0.789-0.395,1.149-1.46,1.059v0.311h3.546v-0.311c-1.159,0.091-1.691-0.27-1.6-1.059V1.26l8.205,10h0.416V1.39
	c-0.092-0.75,0.371-1.1,1.392-1.06l0,0H44.119z"/>
</svg>
