<?xml version="1.0" encoding="utf-8"?>
<!-- Generator: Adobe Illustrator 16.0.0, SVG Export Plug-In . SVG Version: 6.00 Build 0)  -->
<!DOCTYPE svg PUBLIC "-//W3C//DTD SVG 1.1//EN" "http://www.w3.org/Graphics/SVG/1.1/DTD/svg11.dtd">
<svg version="1.1" id="图层_1" xmlns="http://www.w3.org/2000/svg" xmlns:xlink="http://www.w3.org/1999/xlink" x="0px" y="0px"
	 width="48.156px" height="11.75px" viewBox="0 0 48.156 11.75" enable-background="new 0 0 48.156 11.75" xml:space="preserve">
<path id="KIDS" fill="#CBB993" d="M11.742,11.199c-0.833-0.08-1.592-0.514-2.086-1.189L5.623,4.45L9.03,1.7
	c0.599-0.569,1.346-0.958,2.156-1.12V0.26H7.292v0.32c0.471-0.043,0.946,0.018,1.391,0.18c0.184,0.17,0.114,0.4-0.209,0.69
	L2.633,6.2V1.45C2.586,0.83,3.05,0.54,4.024,0.58V0.26h-4.033v0.32c0.973-0.09,1.436,0.21,1.39,0.87v8.81
	c0.093,0.67-0.371,0.98-1.39,0.939v0.311h4.033v-0.311c-1.02,0.041-1.484-0.27-1.391-0.939V6.891l2.086-1.75l3.685,5.19
	c0.279,0.33,0.324,0.561,0.139,0.68c-0.418,0.17-0.872,0.235-1.321,0.189v0.311h4.52V11.199L11.742,11.199z M20.276,11.199
	c-1.252,0.041-1.831-0.25-1.738-0.869V1.64c-0.094-0.75,0.486-1.1,1.738-1.06V0.26h-4.659v0.32c1.252-0.04,1.831,0.31,1.739,1.06
	v8.69c0.092,0.619-0.488,0.91-1.739,0.869v0.311h4.658L20.276,11.199L20.276,11.199z M35.729,5.89
	c-0.184-3.54-2.131-5.417-5.84-5.63h-5.7v0.32c1.019-0.04,1.506,0.33,1.459,1.12v8.31c0.047,0.84-0.44,1.23-1.459,1.189v0.311h5.7
	C33.689,11.391,35.637,9.51,35.729,5.89L35.729,5.89L35.729,5.89z M34.339,5.89c-0.094,3.333-1.577,5.083-4.45,5.25H28.15
	c-0.527,0.15-1.078-0.154-1.229-0.682c-0.042-0.146-0.05-0.3-0.023-0.449V1.64c-0.047-0.71,0.348-1.04,1.183-1h1.808
	C32.67,0.93,34.154,2.68,34.339,5.89L34.339,5.89L34.339,5.89z M41.145,11.26c1.029,0.354,2.113,0.523,3.201,0.5
	c2.456-0.08,3.73-1.1,3.823-3.06c0.046-1.71-1.321-2.91-4.101-3.62c-2.041-0.54-3.014-1.38-2.92-2.5
	c0.139-1.25,0.95-1.94,2.434-2.07c1.622-0.12,2.874,0.729,3.755,2.57l0.349-0.13l-0.278-2.69l-0.974,0.38
	c-0.892-0.422-1.866-0.638-2.852-0.63c-2.364,0.09-3.615,1.05-3.755,2.88c-0.094,1.46,1.182,2.543,3.825,3.25
	c2.133,0.581,3.199,1.516,3.199,2.81c-0.045,1.46-0.926,2.229-2.642,2.31c-1.901,0.211-3.245-0.663-4.033-2.619L39.829,8.76
	l0.209,2.82L41.145,11.26z"/>
</svg>
